{"glyphs":{"0":{"ha":865,"x_min":28,"x_max":838,"o":"m 433 983 q 636 917 543 983 q 783 736 729 850 q 838 488 838 622 q 783 238 838 353 q 636 57 729 124 q 433 -10 543 -10 q 231 57 324 -10 q 83 238 138 124 q 28 488 28 353 q 83 736 28 622 q 231 917 138 850 q 433 983 324 983 m 433 253 q 518 284 479 253 q 579 369 557 315 q 601 488 601 424 q 578 605 601 551 q 517 690 556 658 q 433 722 479 722 q 349 690 388 722 q 287 605 310 658 q 264 488 264 551 q 287 369 264 424 q 349 284 310 315 q 433 253 388 253 z "},"1":{"ha":483,"x_min":42,"x_max":428,"o":"m 314 982 l 428 982 l 428 0 l 178 0 l 178 694 l 42 651 l 42 896 l 178 939 l 178 939 l 314 982 z "},"2":{"ha":800,"x_min":56,"x_max":772,"o":"m 772 222 l 772 0 l 56 0 l 56 200 l 201 311 l 406 465 l 481 522 l 488 528 q 522 574 510 547 q 533 629 533 600 q 504 713 533 679 q 463 744 486 733 q 413 756 439 756 q 339 729 371 756 q 301 676 313 710 l 56 676 q 119 833 68 763 q 247 945 169 904 q 414 986 324 986 q 545 962 483 986 q 656 893 607 938 l 665 885 q 724 813 696 856 q 763 650 763 742 q 733 503 763 575 q 643 372 704 431 q 600 336 615 347 l 482 249 l 447 222 l 447 222 l 772 222 z "},"3":{"ha":775,"x_min":28,"x_max":733,"o":"m 733 782 l 572 608 q 690 488 646 563 q 733 325 733 413 q 686 156 733 233 q 558 32 639 78 q 381 -14 476 -14 q 203 32 285 -14 q 75 156 122 78 q 28 325 28 233 l 254 325 q 291 240 254 275 q 381 204 328 204 q 469 240 432 204 q 506 325 506 275 l 506 328 q 492 384 507 349 q 432 460 478 419 q 342 519 393 494 l 342 638 l 364 663 l 442 747 l 474 782 l 61 782 l 61 974 l 733 974 l 733 782 z "},"4":{"ha":926,"x_min":35,"x_max":885,"o":"m 749 392 l 885 392 l 885 182 l 749 182 l 749 0 l 524 0 l 524 182 l 35 182 l 35 235 l 35 392 l 35 413 l 489 981 l 524 981 l 524 982 l 749 982 l 749 981 l 749 392 m 283 392 l 524 392 l 524 688 l 283 392 z "},"5":{"ha":761,"x_min":28,"x_max":733,"o":"m 410 668 q 573 615 499 661 q 690 493 647 568 q 733 331 733 418 q 686 161 733 239 q 558 38 639 83 q 381 -8 476 -8 q 203 38 285 -8 q 75 161 122 83 q 28 331 28 239 l 235 331 q 280 232 238 272 q 381 192 322 192 q 485 234 442 192 q 528 338 528 276 q 485 442 528 399 q 381 485 442 485 l 375 485 q 303 463 336 483 q 268 433 283 451 l 42 433 l 50 468 l 161 979 l 164 979 l 667 979 l 667 769 l 343 769 l 336 769 l 329 769 l 299 654 q 317 660 303 656 q 356 667 331 664 q 410 668 381 669 z "},"6":{"ha":775,"x_min":28,"x_max":733,"o":"m 442 664 q 590 603 524 650 q 695 484 657 556 q 733 331 733 413 q 686 161 733 239 q 558 38 639 83 q 381 -8 476 -8 q 203 38 285 -8 q 75 161 122 83 q 28 331 28 239 q 89 521 28 436 l 393 979 l 651 979 l 442 664 m 381 197 q 478 236 438 197 q 518 331 518 275 q 478 424 518 385 q 381 463 438 463 q 283 424 324 463 q 242 331 242 385 q 283 236 242 275 q 381 197 324 197 z "},"7":{"ha":749,"x_min":28,"x_max":721,"o":"m 574 972 l 721 972 l 467 -10 l 207 -10 l 406 750 l 28 750 l 28 972 l 550 972 l 574 972 l 574 972 z "},"8":{"ha":726,"x_min":28,"x_max":699,"o":"m 597 542 q 672 438 644 497 q 699 310 699 378 q 653 148 699 222 q 531 31 608 74 q 364 -12 454 -12 q 195 31 272 -12 q 73 148 118 74 q 28 310 28 222 q 55 438 28 378 q 131 542 82 497 q 72 708 72 615 q 112 847 72 783 q 218 949 151 911 q 364 986 285 986 q 510 949 443 986 q 615 847 576 911 q 654 708 654 783 q 597 542 654 614 m 271 708 q 285 663 271 683 q 321 629 299 642 q 364 619 343 619 q 407 629 382 619 q 442 662 429 640 q 456 708 456 683 q 428 770 456 744 q 364 796 401 796 q 298 770 325 796 q 271 708 271 744 m 364 183 q 456 220 418 183 q 494 310 494 257 q 468 386 494 353 q 400 431 442 419 q 364 436 385 436 q 326 431 343 436 q 258 386 285 419 q 232 310 232 353 q 270 220 232 257 q 364 183 308 183 z "},"9":{"ha":761,"x_min":28,"x_max":733,"o":"m 381 988 q 558 942 476 988 q 686 818 639 896 q 733 649 733 740 q 672 457 733 542 l 368 0 l 110 0 l 319 315 q 171 376 238 329 q 66 495 104 424 q 28 649 28 567 q 75 818 28 740 q 203 942 122 896 q 381 988 285 988 m 243 649 q 283 554 243 593 q 381 515 324 515 q 478 554 438 515 q 519 649 519 593 q 478 742 519 704 q 381 781 438 781 q 283 742 324 781 q 243 649 243 704 z "}," ":{"ha":417,"x_min":0,"x_max":0,"o":""},"A":{"ha":860,"x_min":-28,"x_max":888,"o":"m 567 972 l 888 0 l 646 0 l 582 199 l 278 199 l 215 0 l -28 0 l 294 972 l 567 972 m 343 401 l 518 401 l 431 676 l 343 401 z "},"Á":{"ha":860,"x_min":-28,"x_max":888,"o":"m 672 1282 l 456 1282 l 340 1044 l 533 1044 l 672 1282 m 343 401 l 518 401 l 431 676 l 343 401 m 567 972 l 888 0 l 646 0 l 582 199 l 278 199 l 215 0 l -28 0 l 294 972 l 567 972 z "},"Ä":{"ha":860,"x_min":-28,"x_max":888,"o":"m 343 401 l 518 401 l 431 676 l 343 401 m 567 972 l 888 0 l 646 0 l 582 199 l 278 199 l 215 0 l -28 0 l 294 972 l 567 972 m 256 1050 q 178 1083 210 1050 q 143 1164 146 1117 q 175 1245 142 1211 q 256 1279 208 1279 q 338 1246 304 1279 q 371 1164 371 1213 q 337 1083 371 1117 q 256 1050 303 1050 m 601 1050 q 524 1083 556 1050 q 489 1164 492 1117 q 521 1245 488 1211 q 601 1279 554 1279 q 683 1246 650 1279 q 717 1164 717 1213 q 683 1083 717 1117 q 601 1050 649 1050 z "},"Å":{"ha":860,"x_min":-28,"x_max":888,"o":"m 343 401 l 518 401 l 431 676 l 343 401 m 567 972 l 888 0 l 646 0 l 582 199 l 278 199 l 215 0 l -28 0 l 294 972 l 567 972 m 428 1307 q 531 1265 489 1307 q 574 1161 574 1222 q 531 1060 574 1103 q 428 1018 488 1018 q 329 1060 369 1018 q 286 1161 289 1101 q 326 1264 285 1221 q 428 1307 368 1307 m 429 1124 q 457 1135 446 1124 q 468 1163 468 1147 q 457 1190 468 1179 q 429 1201 446 1201 q 402 1190 414 1201 q 392 1163 390 1179 q 403 1135 392 1147 q 429 1124 414 1124 z "},"B":{"ha":856,"x_min":56,"x_max":828,"o":"m 708 514 q 796 415 764 475 q 828 283 828 354 q 790 142 828 207 q 688 40 753 78 q 546 0 624 1 l 56 0 l 56 1 l 56 201 l 56 983 l 150 983 l 290 983 l 501 983 q 644 944 581 983 q 745 842 708 906 q 782 703 782 778 q 763 601 782 650 q 708 514 743 551 m 567 679 q 537 752 567 722 q 465 782 507 782 l 290 782 l 285 782 l 285 611 l 285 581 l 285 574 l 288 574 l 290 574 l 465 574 q 499 579 489 576 q 524 593 508 582 q 556 631 544 608 q 567 679 567 653 m 507 201 q 578 233 549 203 q 607 307 608 264 q 583 373 607 344 q 524 408 560 401 q 326 410 515 410 l 290 410 l 285 410 l 285 372 l 285 201 l 290 201 l 314 201 l 507 201 z "},"C":{"ha":903,"x_min":28,"x_max":875,"o":"m 524 232 q 622 252 575 232 q 706 307 669 272 l 875 138 q 715 30 806 68 q 524 -8 625 -8 q 275 58 389 -8 q 94 239 161 125 q 28 488 28 353 q 94 737 28 622 q 275 918 161 851 q 524 985 389 985 q 715 947 625 985 q 875 839 806 908 l 706 669 q 622 724 669 704 q 524 744 575 744 q 396 710 454 744 q 303 616 338 675 q 268 488 268 557 q 303 360 268 418 q 396 267 338 301 q 524 232 454 232 z "},"Ç":{"ha":903,"x_min":28,"x_max":875,"o":"m 875 136 q 607 -3 761 24 l 607 -146 l 404 -146 l 404 6 q 211 101 297 32 q 76 272 125 171 q 28 486 28 372 q 94 735 28 621 q 275 917 161 850 q 524 983 389 983 q 715 945 625 983 q 875 838 806 907 l 706 668 q 622 723 669 703 q 524 743 575 743 q 396 708 454 743 q 303 615 338 674 q 268 486 268 556 q 303 358 268 417 q 396 265 338 300 q 524 231 454 231 q 622 251 575 231 q 706 306 669 271 l 875 136 z "},"D":{"ha":960,"x_min":56,"x_max":932,"o":"m 307 993 q 486 985 411 993 q 634 950 561 978 q 769 865 707 922 q 890 697 847 794 q 932 494 932 599 q 878 268 932 371 q 726 94 818 154 q 526 16 633 35 q 278 -3 418 -3 l 164 -1 q 56 0 128 0 l 56 993 l 307 993 m 686 436 q 693 494 693 468 q 660 620 693 561 q 569 715 626 679 q 443 753 511 751 l 307 753 l 307 240 q 478 252 407 240 q 608 307 550 264 q 686 436 665 350 z "},"E":{"ha":779,"x_min":56,"x_max":724,"o":"m 724 213 l 724 0 l 307 0 l 307 0 l 56 0 l 56 982 l 307 982 l 307 982 l 711 982 l 711 769 l 307 769 l 307 597 l 647 597 l 647 385 l 307 385 l 307 213 l 724 213 z "},"É":{"ha":779,"x_min":56,"x_max":724,"o":"m 724 213 l 724 0 l 307 0 l 56 0 l 56 982 l 56 982 l 711 982 l 711 769 l 307 769 l 307 597 l 647 597 l 647 385 l 307 385 l 307 213 l 724 213 m 600 1282 l 383 1282 l 269 1044 l 461 1044 l 600 1282 z "},"F":{"ha":767,"x_min":56,"x_max":739,"o":"m 739 769 l 306 769 l 306 597 l 653 597 l 653 385 l 306 385 l 306 0 l 56 0 l 56 982 l 306 982 l 306 982 l 739 982 l 739 769 z "},"G":{"ha":1049,"x_min":28,"x_max":1021,"o":"m 1007 601 q 1021 486 1021 539 q 954 238 1021 351 q 773 57 888 124 q 524 -10 658 -10 q 275 57 389 -10 q 94 238 161 124 q 28 486 28 351 q 94 735 28 621 q 275 917 161 850 q 524 983 389 983 q 717 944 626 983 q 876 836 808 906 l 653 708 q 524 743 594 743 q 396 708 454 743 q 303 615 338 674 q 268 486 268 556 q 303 358 268 417 q 396 265 338 300 q 524 231 454 231 q 658 269 597 231 q 753 371 719 307 l 444 371 l 444 601 l 540 601 l 753 601 l 1007 601 z "},"Ğ":{"ha":1049,"x_min":28,"x_max":1021,"o":"m 1007 600 q 1021 485 1021 538 q 954 236 1021 350 q 773 56 888 122 q 524 -11 658 -11 q 275 56 389 -11 q 94 236 161 122 q 28 485 28 350 q 94 734 28 619 q 275 915 161 849 q 524 982 389 982 q 717 943 626 982 q 876 835 808 904 l 653 707 q 524 742 594 742 q 396 707 454 742 q 303 613 338 672 q 268 485 268 554 q 303 357 268 415 q 396 264 338 299 q 524 229 454 229 q 658 267 597 229 q 753 369 719 306 l 444 369 l 444 600 l 540 600 l 753 600 l 1007 600 m 513 1185 q 583 1207 551 1185 q 629 1264 615 1229 l 775 1264 q 728 1149 765 1200 q 635 1067 692 1097 q 513 1038 578 1038 q 390 1067 447 1038 q 297 1149 333 1097 q 250 1264 260 1200 l 394 1264 q 442 1207 410 1229 q 513 1185 474 1185 z "},"H":{"ha":892,"x_min":56,"x_max":836,"o":"m 586 982 l 836 982 l 836 0 l 586 0 l 586 367 l 306 367 l 306 0 l 56 0 l 56 982 l 306 982 l 306 617 l 586 617 l 586 982 z "},"I":{"ha":361,"x_min":56,"x_max":306,"o":"m 306 982 l 306 0 l 56 0 l 56 982 l 306 982 z "},"Í":{"ha":482,"x_min":63,"x_max":419,"o":"m 419 1282 l 203 1282 l 88 1044 l 281 1044 l 419 1282 m 313 982 l 313 0 l 63 0 l 63 982 l 313 982 z "},"İ":{"ha":375,"x_min":63,"x_max":313,"o":"m 313 982 l 313 0 l 63 0 l 63 982 l 313 982 m 186 1047 q 108 1081 140 1047 q 74 1161 76 1114 q 106 1242 72 1208 q 186 1276 139 1276 q 268 1243 235 1276 q 301 1161 301 1210 q 267 1081 301 1114 q 186 1047 233 1047 z "},"J":{"ha":858,"x_min":28,"x_max":803,"o":"m 571 985 l 803 985 l 803 378 q 751 183 803 272 q 610 42 699 94 q 415 -10 521 -10 q 221 42 310 -10 q 80 183 132 94 q 28 378 28 272 l 28 418 l 260 418 q 304 285 263 338 q 415 233 346 233 q 527 291 483 233 q 571 433 571 349 l 571 985 z "},"K":{"ha":881,"x_min":56,"x_max":825,"o":"m 532 496 l 532 496 l 825 0 l 547 0 l 306 396 l 306 0 l 56 0 l 56 982 l 306 982 l 306 599 l 547 982 l 825 982 l 532 496 z "},"L":{"ha":733,"x_min":56,"x_max":692,"o":"m 306 236 l 692 236 l 692 0 l 56 0 l 56 0 l 56 250 l 56 982 l 306 982 l 306 236 z "},"M":{"ha":1118,"x_min":56,"x_max":1063,"o":"m 813 982 l 1063 982 l 1063 0 l 813 0 l 813 6 l 813 65 l 813 65 l 813 554 l 813 554 l 690 332 l 685 321 l 435 321 l 428 332 l 411 364 l 307 554 l 307 65 l 307 6 l 307 0 l 274 0 l 56 0 l 56 982 l 307 982 l 560 564 l 813 982 z "},"N":{"ha":901,"x_min":56,"x_max":846,"o":"m 596 982 l 846 982 l 846 0 l 596 0 l 307 526 l 307 0 l 56 0 l 56 982 l 307 982 l 596 456 l 596 982 z "},"Ñ":{"ha":901,"x_min":56,"x_max":846,"o":"m 596 982 l 846 982 l 846 0 l 596 0 l 307 526 l 307 0 l 56 0 l 56 982 l 307 982 l 596 456 l 596 982 m 306 1043 q 317 1090 304 1071 q 354 1108 331 1108 q 385 1103 368 1108 q 417 1091 403 1097 q 443 1081 432 1085 q 558 1053 513 1053 q 671 1090 626 1053 q 714 1194 715 1128 l 599 1236 q 554 1179 600 1179 q 519 1185 536 1179 q 485 1197 501 1190 q 464 1206 469 1203 q 403 1228 426 1221 q 351 1235 379 1235 q 273 1216 311 1235 q 211 1163 235 1197 q 189 1086 188 1129 l 306 1043 z "},"O":{"ha":1049,"x_min":28,"x_max":1021,"o":"m 525 982 q 774 915 660 982 q 954 734 888 849 q 1021 485 1021 619 q 954 236 1021 350 q 774 56 888 122 q 525 -11 660 -11 q 276 56 390 -11 q 94 236 161 122 q 28 485 28 350 q 94 734 28 619 q 276 915 161 849 q 525 982 390 982 m 525 229 q 653 264 594 229 q 746 357 711 299 q 781 485 781 415 q 746 613 781 554 q 653 707 711 672 q 525 742 594 742 q 397 707 456 742 q 303 613 338 672 q 268 485 268 554 q 303 357 268 415 q 397 264 338 299 q 525 229 456 229 z "},"Ó":{"ha":1049,"x_min":28,"x_max":1021,"o":"m 722 1279 l 504 1279 l 390 1042 l 583 1042 l 722 1279 m 525 232 q 653 267 594 232 q 746 360 711 301 q 781 488 781 418 q 746 616 781 557 q 653 710 711 675 q 525 744 594 744 q 397 710 456 744 q 303 616 338 675 q 268 488 268 557 q 303 360 268 418 q 397 267 338 301 q 525 232 456 232 m 525 985 q 774 918 660 985 q 954 737 888 851 q 1021 488 1021 622 q 954 239 1021 353 q 774 58 888 125 q 525 -8 660 -8 q 276 58 390 -8 q 94 239 161 125 q 28 488 28 353 q 94 737 28 622 q 276 918 161 851 q 525 985 390 985 z "},"Ö":{"ha":1049,"x_min":28,"x_max":1021,"o":"m 525 231 q 653 265 594 231 q 746 358 711 300 q 781 486 781 417 q 746 615 781 556 q 653 708 711 674 q 525 743 594 743 q 397 708 456 743 q 303 615 338 674 q 268 486 268 556 q 303 358 268 417 q 397 265 338 300 q 525 231 456 231 m 525 983 q 774 917 660 983 q 954 735 888 850 q 1021 486 1021 621 q 954 238 1021 351 q 774 57 888 124 q 525 -10 660 -10 q 276 57 390 -10 q 94 238 161 124 q 28 486 28 351 q 94 735 28 621 q 276 917 161 850 q 525 983 390 983 m 336 1050 q 258 1083 290 1050 q 224 1165 226 1117 q 256 1246 222 1213 q 336 1279 289 1279 q 417 1246 383 1279 q 451 1165 451 1213 q 418 1084 451 1118 q 336 1050 385 1050 m 710 1050 q 632 1083 664 1050 q 597 1165 600 1117 q 629 1246 596 1213 q 710 1279 663 1279 q 791 1246 757 1279 q 825 1165 825 1213 q 792 1084 825 1118 q 710 1050 758 1050 z "},"P":{"ha":857,"x_min":56,"x_max":829,"o":"m 524 982 q 677 941 607 982 q 788 830 747 900 q 829 676 829 760 q 788 523 829 593 q 677 412 747 453 q 524 371 607 371 l 290 371 l 290 0 l 56 0 l 56 982 l 524 982 m 608 678 q 581 748 608 718 q 515 781 554 778 l 285 781 l 285 572 l 515 572 q 581 606 554 575 q 608 678 608 638 z "},"Q":{"ha":1047,"x_min":28,"x_max":1019,"o":"m 1019 486 q 982 298 1019 388 q 878 139 944 208 l 965 0 l 774 -119 l 689 18 q 524 -10 608 -10 q 275 57 389 -10 q 94 238 161 124 q 28 486 28 351 q 94 735 28 621 q 275 917 161 850 q 524 983 389 983 q 772 917 658 983 q 953 735 886 850 q 1019 486 1019 621 m 268 486 q 302 358 268 417 q 395 265 336 300 q 524 231 454 231 q 652 265 593 231 q 745 358 711 300 q 779 486 779 417 q 745 615 779 556 q 652 708 711 674 q 524 743 593 743 q 395 708 454 743 q 302 615 336 674 q 268 486 268 556 z "},"R":{"ha":885,"x_min":56,"x_max":857,"o":"m 857 0 l 606 0 l 450 371 l 290 371 l 290 0 l 56 0 l 56 982 l 150 982 l 290 982 l 524 982 q 676 941 606 982 q 788 829 747 900 q 829 676 829 758 q 792 530 829 597 q 690 419 754 463 l 857 0 m 607 678 q 581 748 607 718 q 515 781 554 778 l 285 781 l 285 572 l 515 572 q 581 606 554 576 q 607 678 607 636 z "},"S":{"ha":772,"x_min":28,"x_max":744,"o":"m 504 671 l 504 689 q 470 758 504 729 q 388 786 436 786 q 302 758 338 786 q 267 689 267 729 q 303 629 267 649 q 397 590 338 606 q 419 586 407 589 q 443 581 431 583 q 642 499 592 544 l 654 488 q 720 392 696 447 q 744 281 744 336 q 717 161 744 218 q 639 60 690 104 q 522 -6 588 17 q 386 -29 457 -29 q 251 -6 315 -29 q 135 60 186 17 q 56 161 83 104 q 28 281 28 218 l 28 299 l 271 299 l 271 281 q 305 212 271 240 q 386 183 339 183 q 472 212 436 183 q 507 281 507 240 q 469 342 507 313 q 431 363 453 354 q 376 379 408 371 l 331 390 q 211 425 254 410 q 132 472 168 440 l 126 478 q 53 575 79 521 q 28 689 28 629 q 56 808 28 751 q 135 910 83 865 q 251 976 186 953 q 386 999 315 999 q 522 976 457 999 q 639 910 588 953 q 717 808 690 865 q 744 689 744 751 l 744 671 l 504 671 z "},"Ş":{"ha":772,"x_min":28,"x_max":744,"o":"m 504 664 l 504 682 q 470 751 504 722 q 388 779 436 779 q 302 751 338 779 q 267 682 267 722 q 303 622 267 642 q 397 583 338 599 q 419 579 407 582 q 443 574 431 576 q 642 492 592 538 l 654 481 q 720 385 696 440 q 744 274 744 329 q 717 154 744 211 q 639 53 690 97 q 489 -24 572 -3 l 489 -151 l 285 -151 l 285 -24 q 135 53 201 -3 q 56 155 83 99 q 28 274 28 211 l 28 292 l 271 292 l 271 274 q 305 205 271 233 q 386 176 339 176 q 472 205 436 176 q 507 274 507 233 q 469 335 507 306 q 431 356 453 347 q 376 372 408 364 l 331 383 q 211 418 254 403 q 132 465 168 433 l 126 471 q 53 568 79 514 q 28 682 28 622 q 56 801 28 744 q 135 903 83 858 q 251 969 186 946 q 386 992 315 992 q 522 969 457 992 q 639 903 588 946 q 717 801 690 858 q 744 682 744 744 l 744 664 l 504 664 z "},"T":{"ha":838,"x_min":42,"x_max":796,"o":"m 796 982 l 796 732 l 544 732 l 544 0 l 293 0 l 293 732 l 42 732 l 42 982 l 293 982 l 293 982 l 544 982 l 544 982 l 796 982 z "},"U":{"ha":910,"x_min":56,"x_max":854,"o":"m 854 981 l 854 374 q 802 179 854 268 q 660 38 750 90 q 465 -14 571 -14 l 443 -14 q 249 38 338 -14 q 108 179 160 90 q 56 374 56 268 l 56 981 l 288 981 l 288 429 q 329 286 288 343 q 443 229 371 229 l 465 229 q 578 287 535 229 q 622 429 622 344 l 622 981 l 854 981 z "},"Ú":{"ha":910,"x_min":56,"x_max":854,"o":"m 676 1285 l 538 1047 l 344 1047 l 460 1285 l 676 1285 m 854 986 l 854 379 q 802 185 854 274 q 660 44 750 96 q 465 -8 571 -8 l 443 -8 q 249 44 338 -8 q 108 185 160 96 q 56 379 56 274 l 56 986 l 288 986 l 288 435 q 329 292 288 349 q 443 235 371 235 l 465 235 q 578 292 535 235 q 622 435 622 350 l 622 986 l 854 986 z "},"Ü":{"ha":938,"x_min":69,"x_max":868,"o":"m 294 1050 q 217 1083 249 1050 q 182 1164 185 1117 q 214 1245 181 1211 q 294 1279 247 1279 q 376 1246 343 1279 q 410 1164 410 1213 q 376 1083 410 1117 q 294 1050 342 1050 m 640 1050 q 563 1083 594 1050 q 528 1164 531 1117 q 560 1245 526 1211 q 640 1279 593 1279 q 722 1246 689 1279 q 756 1164 756 1213 q 722 1083 756 1117 q 640 1050 688 1050 m 868 983 l 868 376 q 816 182 868 271 q 674 41 764 93 q 479 -11 585 -11 l 457 -11 q 263 41 351 -11 q 122 182 174 93 q 69 376 69 271 l 69 983 l 301 983 l 301 432 q 343 289 301 346 q 457 232 385 232 l 479 232 q 592 290 549 232 q 636 432 636 347 l 636 983 l 868 983 z "},"V":{"ha":1001,"x_min":28,"x_max":974,"o":"m 701 985 l 974 985 l 653 0 l 622 0 l 381 0 l 347 0 l 28 985 l 303 985 l 501 371 l 701 985 z "},"W":{"ha":1118,"x_min":56,"x_max":1063,"o":"m 846 982 l 1063 982 l 1063 0 l 813 0 l 560 418 l 306 0 l 56 0 l 56 982 l 306 982 l 306 936 l 306 917 l 306 428 l 306 428 l 428 650 l 435 661 l 685 661 l 690 650 l 813 428 l 813 917 l 813 976 l 813 982 l 846 982 z "},"X":{"ha":946,"x_min":28,"x_max":918,"o":"m 918 0 l 628 0 l 472 256 l 318 0 l 28 0 l 328 496 l 33 982 l 324 982 l 472 736 l 621 982 l 913 982 l 618 496 l 918 0 z "},"Y":{"ha":828,"x_min":0,"x_max":828,"o":"m 578 982 l 828 982 l 539 400 l 539 0 l 289 0 l 289 400 l 0 982 l 250 982 l 414 647 l 578 982 z "},"Z":{"ha":903,"x_min":56,"x_max":847,"o":"m 847 985 l 847 744 l 394 240 l 847 240 l 847 0 l 56 0 l 56 239 l 56 239 l 56 239 l 56 240 l 57 240 l 533 744 l 71 744 l 71 985 l 847 985 z "},"a":{"ha":860,"x_min":-28,"x_max":888,"o":"m 567 972 l 888 0 l 646 0 l 582 199 l 278 199 l 215 0 l -28 0 l 294 972 l 567 972 m 343 401 l 518 401 l 431 676 l 343 401 z "},"á":{"ha":860,"x_min":-28,"x_max":888,"o":"m 672 1282 l 456 1282 l 340 1044 l 533 1044 l 672 1282 m 343 401 l 518 401 l 431 676 l 343 401 m 567 972 l 888 0 l 646 0 l 582 199 l 278 199 l 215 0 l -28 0 l 294 972 l 567 972 z "},"ä":{"ha":860,"x_min":-28,"x_max":888,"o":"m 343 401 l 518 401 l 431 676 l 343 401 m 567 972 l 888 0 l 646 0 l 582 199 l 278 199 l 215 0 l -28 0 l 294 972 l 567 972 m 256 1050 q 178 1083 210 1050 q 143 1164 146 1117 q 175 1245 142 1211 q 256 1279 208 1279 q 338 1246 304 1279 q 371 1164 371 1213 q 337 1083 371 1117 q 256 1050 303 1050 m 601 1050 q 524 1083 556 1050 q 489 1164 492 1117 q 521 1245 488 1211 q 601 1279 554 1279 q 683 1246 650 1279 q 717 1164 717 1213 q 683 1083 717 1117 q 601 1050 649 1050 z "},"å":{"ha":860,"x_min":-28,"x_max":888,"o":"m 343 401 l 518 401 l 431 676 l 343 401 m 567 972 l 888 0 l 646 0 l 582 199 l 278 199 l 215 0 l -28 0 l 294 972 l 567 972 m 428 1307 q 531 1265 489 1307 q 574 1161 574 1222 q 531 1060 574 1103 q 428 1018 488 1018 q 329 1060 369 1018 q 286 1161 289 1101 q 326 1264 285 1221 q 428 1307 368 1307 m 429 1124 q 457 1135 446 1124 q 468 1163 468 1147 q 457 1190 468 1179 q 429 1201 446 1201 q 402 1190 414 1201 q 392 1163 390 1179 q 403 1135 392 1147 q 429 1124 414 1124 z "},"b":{"ha":856,"x_min":56,"x_max":828,"o":"m 708 514 q 796 415 764 475 q 828 283 828 354 q 790 142 828 207 q 690 40 753 78 q 550 0 626 1 l 550 0 l 546 0 l 56 0 l 56 1 l 56 201 l 56 983 l 150 983 l 290 983 l 501 983 l 506 983 l 506 983 q 644 945 581 983 q 745 843 708 907 q 782 703 782 779 q 763 601 782 650 q 708 514 743 551 m 567 679 q 537 752 567 722 q 465 782 507 782 l 465 782 l 290 782 l 285 782 l 285 611 l 285 581 l 285 574 l 288 574 l 290 574 l 465 574 l 465 574 l 465 574 q 524 593 497 574 q 556 631 544 608 q 567 679 567 653 m 507 201 q 578 233 549 203 q 607 307 608 264 q 583 373 607 344 q 524 408 560 401 q 507 410 518 410 l 507 410 l 326 410 l 290 410 l 285 410 l 285 372 l 285 201 l 290 201 l 314 201 l 507 201 l 507 201 l 507 201 l 507 201 l 507 201 z "},"c":{"ha":903,"x_min":28,"x_max":875,"o":"m 524 232 q 622 252 575 232 q 706 307 669 272 l 875 138 q 715 30 806 68 q 524 -8 625 -8 q 275 58 389 -8 q 94 239 161 125 q 28 488 28 353 q 94 737 28 622 q 275 918 161 851 q 524 985 389 985 q 715 947 625 985 q 875 839 806 908 l 706 669 q 622 724 669 704 q 524 744 575 744 q 396 710 454 744 q 303 616 338 675 q 268 488 268 557 q 303 360 268 418 q 396 267 338 301 q 524 232 454 232 z "},"ç":{"ha":903,"x_min":28,"x_max":875,"o":"m 875 136 q 607 -3 761 24 l 607 -146 l 404 -146 l 404 6 q 211 101 297 32 q 76 272 125 171 q 28 486 28 372 q 94 735 28 621 q 275 917 161 850 q 524 983 389 983 q 715 945 625 983 q 875 838 806 907 l 706 668 q 622 723 669 703 q 524 743 575 743 q 396 708 454 743 q 303 615 338 674 q 268 486 268 556 q 303 358 268 417 q 396 265 338 300 q 524 231 454 231 q 622 251 575 231 q 706 306 669 271 l 875 136 z "},"d":{"ha":960,"x_min":56,"x_max":932,"o":"m 306 996 q 485 988 410 996 q 633 953 560 981 q 769 868 706 925 q 890 700 847 797 q 932 499 932 603 q 876 271 932 378 q 726 98 818 157 q 526 19 633 39 q 278 0 418 0 l 164 1 q 56 3 128 3 l 56 996 l 306 996 m 685 439 q 692 499 692 464 q 658 624 692 565 q 568 718 625 682 q 443 756 511 754 l 443 756 l 306 756 l 306 243 q 478 255 407 243 q 607 310 550 267 q 685 439 664 353 z "},"e":{"ha":779,"x_min":56,"x_max":724,"o":"m 724 213 l 724 0 l 307 0 l 307 0 l 56 0 l 56 982 l 307 982 l 307 982 l 711 982 l 711 769 l 307 769 l 307 597 l 647 597 l 647 385 l 307 385 l 307 213 l 724 213 z "},"é":{"ha":779,"x_min":56,"x_max":724,"o":"m 724 213 l 724 0 l 307 0 l 56 0 l 56 982 l 56 982 l 711 982 l 711 769 l 307 769 l 307 597 l 647 597 l 647 385 l 307 385 l 307 213 l 724 213 m 600 1282 l 383 1282 l 269 1044 l 461 1044 l 600 1282 z "},"f":{"ha":767,"x_min":56,"x_max":739,"o":"m 739 769 l 306 769 l 306 597 l 653 597 l 653 385 l 306 385 l 306 0 l 56 0 l 56 982 l 306 982 l 306 982 l 739 982 l 739 769 z "},"g":{"ha":1049,"x_min":28,"x_max":1021,"o":"m 1008 589 q 1021 486 1021 533 q 954 238 1021 351 q 773 57 888 124 q 524 -10 658 -10 q 275 57 389 -10 q 94 238 161 124 q 28 486 28 351 q 94 735 28 621 q 275 917 161 850 q 524 983 389 983 q 717 944 626 983 q 876 836 808 906 l 657 715 q 524 751 593 751 q 392 715 453 751 q 297 619 332 679 q 261 486 261 558 q 297 355 261 415 q 392 258 332 294 q 524 222 453 222 q 667 269 600 222 q 761 388 733 315 l 443 388 l 443 592 l 542 592 l 760 592 l 1008 589 l 1008 589 l 1008 589 z "},"ğ":{"ha":1049,"x_min":28,"x_max":1021,"o":"m 1007 600 q 1021 485 1021 538 q 954 236 1021 350 q 773 56 888 122 q 524 -11 658 -11 q 275 56 389 -11 q 94 236 161 122 q 28 485 28 350 q 94 734 28 619 q 275 915 161 849 q 524 982 389 982 q 717 943 626 982 q 876 835 808 904 l 653 707 q 524 742 594 742 q 396 707 454 742 q 303 613 338 672 q 268 485 268 554 q 303 357 268 415 q 396 264 338 299 q 524 229 454 229 q 658 267 597 229 q 753 369 719 306 l 444 369 l 444 600 l 540 600 l 753 600 l 1007 600 m 513 1185 q 583 1207 551 1185 q 629 1264 615 1229 l 775 1264 q 728 1149 765 1200 q 635 1067 692 1097 q 513 1038 578 1038 q 390 1067 447 1038 q 297 1149 333 1097 q 250 1264 260 1200 l 394 1264 q 442 1207 410 1229 q 513 1185 474 1185 z "},"h":{"ha":892,"x_min":56,"x_max":836,"o":"m 586 982 l 836 982 l 836 0 l 586 0 l 586 367 l 306 367 l 306 0 l 56 0 l 56 982 l 306 982 l 306 617 l 586 617 l 586 982 z "},"i":{"ha":375,"x_min":63,"x_max":313,"o":"m 313 982 l 313 0 l 63 0 l 63 982 l 313 982 m 186 1047 q 108 1081 140 1047 q 74 1161 76 1114 q 106 1242 72 1208 q 186 1276 139 1276 q 268 1243 235 1276 q 301 1161 301 1210 q 267 1081 301 1114 q 186 1047 233 1047 z "},"í":{"ha":419,"x_min":63,"x_max":419,"o":"m 419 1282 l 203 1282 l 88 1044 l 281 1044 l 419 1282 m 313 982 l 313 0 l 63 0 l 63 982 l 313 982 z "},"j":{"ha":858,"x_min":28,"x_max":803,"o":"m 571 985 l 803 985 l 803 378 q 751 183 803 272 q 610 42 699 94 q 415 -10 521 -10 q 221 42 310 -10 q 80 183 132 94 q 28 378 28 272 l 28 418 l 260 418 q 304 285 263 338 q 415 233 346 233 q 528 291 485 233 q 572 433 572 349 l 571 433 l 571 985 z "},"k":{"ha":881,"x_min":56,"x_max":825,"o":"m 532 496 l 532 496 l 825 0 l 547 0 l 306 396 l 306 0 l 56 0 l 56 982 l 306 982 l 306 599 l 547 982 l 825 982 l 532 496 z "},"l":{"ha":733,"x_min":56,"x_max":692,"o":"m 306 236 l 692 236 l 692 0 l 56 0 l 56 0 l 56 250 l 56 982 l 306 982 l 306 236 z "},"m":{"ha":1118,"x_min":56,"x_max":1063,"o":"m 813 982 l 1063 982 l 1063 0 l 813 0 l 813 6 l 813 65 l 813 65 l 813 554 l 813 554 l 690 332 l 685 321 l 435 321 l 428 332 l 411 364 l 307 554 l 307 65 l 307 6 l 307 0 l 274 0 l 56 0 l 56 982 l 307 982 l 560 564 l 813 982 z "},"n":{"ha":901,"x_min":56,"x_max":846,"o":"m 596 982 l 846 982 l 846 0 l 596 0 l 307 526 l 307 0 l 56 0 l 56 982 l 307 982 l 596 456 l 596 982 z "},"ñ":{"ha":901,"x_min":56,"x_max":846,"o":"m 596 982 l 846 982 l 846 0 l 596 0 l 307 526 l 307 0 l 56 0 l 56 982 l 307 982 l 596 456 l 596 982 m 306 1043 q 317 1090 304 1071 q 354 1108 331 1108 q 385 1103 368 1108 q 417 1091 403 1097 q 443 1081 432 1085 q 558 1053 513 1053 q 671 1090 626 1053 q 714 1194 715 1128 l 599 1236 q 554 1179 600 1179 q 519 1185 536 1179 q 485 1197 501 1190 q 464 1206 469 1203 q 403 1228 426 1221 q 351 1235 379 1235 q 273 1216 311 1235 q 211 1163 235 1197 q 189 1086 188 1129 l 306 1043 z "},"o":{"ha":1049,"x_min":28,"x_max":1021,"o":"m 525 982 q 774 915 660 982 q 954 734 888 849 q 1021 485 1021 619 q 954 236 1021 350 q 774 56 888 122 q 525 -11 660 -11 q 276 56 390 -11 q 94 236 161 122 q 28 485 28 350 q 94 734 28 619 q 276 915 161 849 q 525 982 390 982 m 525 229 q 653 264 594 229 q 746 357 711 299 q 781 485 781 415 q 746 613 781 554 q 653 707 711 672 q 525 742 594 742 q 397 707 456 742 q 303 613 338 672 q 268 485 268 554 q 303 357 268 415 q 397 264 338 299 q 525 229 456 229 z "},"ó":{"ha":1049,"x_min":28,"x_max":1021,"o":"m 722 1279 l 504 1279 l 390 1042 l 583 1042 l 722 1279 m 525 232 q 653 267 594 232 q 746 360 711 301 q 781 488 781 418 q 746 616 781 557 q 653 710 711 675 q 525 744 594 744 q 397 710 456 744 q 303 616 338 675 q 268 488 268 557 q 303 360 268 418 q 397 267 338 301 q 525 232 456 232 m 525 985 q 774 918 660 985 q 954 737 888 851 q 1021 488 1021 622 q 954 239 1021 353 q 774 58 888 125 q 525 -8 660 -8 q 276 58 390 -8 q 94 239 161 125 q 28 488 28 353 q 94 737 28 622 q 276 918 161 851 q 525 985 390 985 z "},"ö":{"ha":1049,"x_min":28,"x_max":1021,"o":"m 525 231 q 653 265 594 231 q 746 358 711 300 q 781 486 781 417 q 746 615 781 556 q 653 708 711 674 q 525 743 594 743 q 397 708 456 743 q 303 615 338 674 q 268 486 268 556 q 303 358 268 417 q 397 265 338 300 q 525 231 456 231 m 525 983 q 774 917 660 983 q 954 735 888 850 q 1021 486 1021 621 q 954 238 1021 351 q 774 57 888 124 q 525 -10 660 -10 q 276 57 390 -10 q 94 238 161 124 q 28 486 28 351 q 94 735 28 621 q 276 917 161 850 q 525 983 390 983 m 336 1050 q 258 1083 290 1050 q 224 1165 226 1117 q 256 1246 222 1213 q 336 1279 289 1279 q 417 1246 383 1279 q 451 1165 451 1213 q 418 1084 451 1118 q 336 1050 385 1050 m 710 1050 q 632 1083 664 1050 q 597 1165 600 1117 q 629 1246 596 1213 q 710 1279 663 1279 q 791 1246 757 1279 q 825 1165 825 1213 q 792 1084 825 1118 q 710 1050 758 1050 z "},"p":{"ha":857,"x_min":56,"x_max":829,"o":"m 524 982 q 677 941 607 982 q 788 830 747 900 q 829 676 829 760 q 788 523 829 593 q 677 412 747 453 q 524 371 607 371 l 290 371 l 290 0 l 56 0 l 56 982 l 150 982 l 290 982 l 524 982 m 515 574 q 581 607 554 576 q 608 678 608 638 q 581 748 608 718 q 515 781 554 778 l 515 781 l 514 781 l 507 781 l 500 781 l 290 781 l 285 781 l 285 572 l 290 572 l 500 572 l 507 572 l 513 572 l 515 572 l 515 574 z "},"q":{"ha":1047,"x_min":28,"x_max":1019,"o":"m 1019 486 q 982 298 1019 388 q 878 139 944 208 l 965 0 l 774 -119 l 689 18 q 524 -10 608 -10 q 275 57 389 -10 q 94 238 161 124 q 28 486 28 351 q 94 735 28 621 q 275 917 161 850 q 524 983 389 983 q 772 917 658 983 q 953 735 886 850 q 1019 486 1019 621 m 268 486 q 302 358 268 417 q 395 265 336 300 q 524 231 454 231 q 652 265 593 231 q 745 358 711 300 q 779 486 779 417 q 745 615 779 556 q 652 708 711 674 q 524 743 593 743 q 395 708 454 743 q 302 615 336 674 q 268 486 268 556 z "},"r":{"ha":857,"x_min":56,"x_max":843,"o":"m 843 0 l 592 0 l 436 371 l 290 371 l 290 0 l 56 0 l 56 982 l 150 982 l 290 982 l 510 982 q 663 941 592 982 q 774 829 733 900 q 815 676 815 758 q 778 530 815 597 q 676 419 740 463 l 843 0 m 593 678 q 567 747 593 718 q 501 779 540 776 l 501 781 l 499 781 l 492 781 l 486 781 l 290 781 l 285 781 l 285 572 l 290 572 l 485 572 l 493 572 l 499 572 l 501 572 l 501 572 q 567 606 540 576 q 593 678 593 636 z "},"s":{"ha":772,"x_min":28,"x_max":744,"o":"m 504 671 l 504 689 q 470 758 504 729 q 388 786 436 786 q 302 758 338 786 q 267 689 267 729 q 303 629 267 649 l 304 629 q 397 590 336 607 q 419 586 407 589 q 443 581 431 583 q 557 548 514 563 q 636 504 600 533 q 642 499 636 504 l 658 485 l 657 485 q 722 390 700 442 q 744 281 744 338 q 717 161 744 218 q 639 60 690 104 q 522 -6 588 17 q 386 -29 457 -29 q 251 -6 315 -29 q 135 60 186 17 q 56 161 83 104 q 28 281 28 218 l 28 299 l 271 299 l 271 281 q 305 212 271 240 q 386 183 339 183 q 472 212 436 183 q 507 281 507 240 q 471 340 507 321 l 469 342 q 431 363 453 354 q 376 379 408 371 l 331 390 q 211 425 254 410 q 132 472 168 440 l 126 476 l 126 476 q 53 574 79 519 q 28 689 28 629 q 56 808 28 751 q 135 910 83 865 q 251 976 186 953 q 386 999 315 999 q 522 976 457 999 q 639 910 588 953 q 717 808 690 865 q 744 689 744 751 l 744 671 l 504 671 z "},"ş":{"ha":772,"x_min":28,"x_max":744,"o":"m 504 664 l 504 682 q 470 751 504 722 q 388 779 436 779 q 302 751 338 779 q 267 682 267 722 q 303 622 267 642 q 397 583 338 599 q 419 579 407 582 q 443 574 431 576 q 642 492 592 538 l 654 481 q 720 385 696 440 q 744 274 744 329 q 717 154 744 211 q 639 53 690 97 q 489 -24 572 -3 l 489 -151 l 285 -151 l 285 -24 q 135 53 201 -3 q 56 155 83 99 q 28 274 28 211 l 28 292 l 271 292 l 271 274 q 305 205 271 233 q 386 176 339 176 q 472 205 436 176 q 507 274 507 233 q 469 335 507 306 q 431 356 453 347 q 376 372 408 364 l 331 383 q 211 418 254 403 q 132 465 168 433 l 126 471 q 53 568 79 514 q 28 682 28 622 q 56 801 28 744 q 135 903 83 858 q 251 969 186 946 q 386 992 315 992 q 522 969 457 992 q 639 903 588 946 q 717 801 690 858 q 744 682 744 744 l 744 664 l 504 664 z "},"ß":{"ha":793,"x_min":56,"x_max":765,"o":"m 265 0 l 265 550 q 304 740 265 685 q 411 796 343 796 q 474 778 446 796 q 503 722 503 761 q 498 695 503 710 q 492 676 493 681 q 415 612 436 649 q 394 518 394 575 q 425 424 394 476 q 501 329 456 372 q 553 271 538 296 q 569 222 569 246 q 553 167 569 190 q 482 143 538 143 q 368 171 421 143 l 346 14 q 489 -15 400 -15 q 627 14 564 -15 q 728 94 690 43 q 765 206 765 144 q 743 322 765 279 q 672 414 721 365 l 646 439 q 601 488 615 468 q 588 532 588 507 q 602 571 588 546 q 646 608 617 596 q 682 746 682 650 q 649 869 682 818 q 561 948 617 921 q 440 975 506 975 q 318 965 368 975 q 219 922 268 954 q 106 798 157 881 q 56 611 56 715 l 56 0 l 265 0 z "},"t":{"ha":810,"x_min":28,"x_max":782,"o":"m 782 982 l 782 732 l 531 732 l 531 0 l 279 0 l 279 732 l 28 732 l 28 982 l 782 982 z "},"u":{"ha":910,"x_min":56,"x_max":854,"o":"m 854 981 l 854 374 q 802 179 854 268 q 660 38 750 90 q 465 -14 571 -14 l 443 -14 q 249 38 338 -14 q 108 179 160 90 q 56 374 56 268 l 56 981 l 288 981 l 288 429 q 329 286 288 343 q 443 229 371 229 l 465 229 q 578 287 535 229 q 622 429 622 344 l 622 981 l 854 981 z "},"ú":{"ha":910,"x_min":56,"x_max":854,"o":"m 676 1285 l 538 1047 l 344 1047 l 460 1285 l 676 1285 m 854 986 l 854 379 q 802 185 854 274 q 660 44 750 96 q 465 -8 571 -8 l 443 -8 q 249 44 338 -8 q 108 185 160 96 q 56 379 56 274 l 56 986 l 288 986 l 288 435 q 329 292 288 349 q 443 235 371 235 l 465 235 q 578 292 535 235 q 622 435 622 350 l 622 986 l 854 986 z "},"ü":{"ha":938,"x_min":69,"x_max":868,"o":"m 294 1050 q 217 1083 249 1050 q 182 1164 185 1117 q 214 1245 181 1211 q 294 1279 247 1279 q 376 1246 343 1279 q 410 1164 410 1213 q 376 1083 410 1117 q 294 1050 342 1050 m 640 1050 q 563 1083 594 1050 q 528 1164 531 1117 q 560 1245 526 1211 q 640 1279 593 1279 q 722 1246 689 1279 q 756 1164 756 1213 q 722 1083 756 1117 q 640 1050 688 1050 m 868 983 l 868 376 q 816 182 868 271 q 674 41 764 93 q 479 -11 585 -11 l 457 -11 q 263 41 351 -11 q 122 182 174 93 q 69 376 69 271 l 69 983 l 301 983 l 301 432 q 343 289 301 346 q 457 232 385 232 l 479 232 q 592 290 549 232 q 636 432 636 347 l 636 983 l 868 983 z "},"v":{"ha":1001,"x_min":28,"x_max":974,"o":"m 701 985 l 974 985 l 653 0 l 622 0 l 381 0 l 347 0 l 28 985 l 303 985 l 501 371 l 701 985 z "},"w":{"ha":1118,"x_min":56,"x_max":1063,"o":"m 846 982 l 1063 982 l 1063 0 l 813 0 l 560 418 l 306 0 l 56 0 l 56 982 l 306 982 l 306 936 l 306 917 l 306 428 l 306 428 l 428 650 l 435 661 l 685 661 l 690 650 l 813 428 l 813 917 l 813 976 l 813 982 l 846 982 z "},"x":{"ha":946,"x_min":28,"x_max":918,"o":"m 918 0 l 628 0 l 472 256 l 318 0 l 28 0 l 328 496 l 33 982 l 324 982 l 472 736 l 621 982 l 913 982 l 618 496 l 918 0 z "},"y":{"ha":828,"x_min":0,"x_max":828,"o":"m 578 982 l 828 982 l 539 400 l 539 0 l 289 0 l 289 400 l 0 982 l 250 982 l 414 647 l 578 982 z "},"z":{"ha":903,"x_min":56,"x_max":847,"o":"m 847 985 l 847 744 l 394 240 l 847 240 l 847 0 l 56 0 l 56 239 l 56 239 l 56 239 l 56 240 l 57 240 l 533 744 l 71 744 l 71 985 l 847 985 z "},"*":{"ha":563,"x_min":42,"x_max":521,"o":"m 521 824 l 404 756 l 521 689 l 457 581 l 343 647 l 343 525 l 218 525 l 218 647 l 104 581 l 42 689 l 157 756 l 42 824 l 104 932 l 218 865 l 218 988 l 343 988 l 343 865 l 457 932 l 521 824 z "},"\\":{"ha":654,"x_min":28,"x_max":626,"o":"m 408 -71 l 626 -71 l 247 992 l 28 992 l 408 -71 z "},"•":{"ha":486,"x_min":69,"x_max":417,"o":"m 242 217 q 119 272 168 218 q 69 400 69 325 q 120 519 69 469 q 242 568 171 568 q 329 544 289 568 q 393 481 369 521 q 417 393 417 440 q 393 306 417 346 q 329 241 369 265 q 242 217 289 217 z "},":":{"ha":353,"x_min":61,"x_max":290,"o":"m 175 432 q 97 465 129 432 q 63 546 65 499 q 94 627 61 593 q 175 661 128 661 q 257 628 224 661 q 290 546 290 594 q 256 465 290 499 q 175 432 222 432 m 175 0 q 97 33 129 0 q 63 114 65 67 q 94 195 61 161 q 175 229 128 229 q 257 196 224 229 q 290 114 290 163 q 256 33 290 67 q 175 0 222 0 z "},",":{"ha":365,"x_min":28,"x_max":338,"o":"m 103 171 l 338 171 l 235 -143 l 28 -143 l 103 171 z "},"!":{"ha":382,"x_min":56,"x_max":326,"o":"m 56 972 l 326 972 l 313 289 l 69 289 l 56 972 m 314 113 q 278 26 314 61 q 190 -10 242 -10 q 103 26 139 -10 q 67 113 67 61 q 103 200 67 164 q 190 236 139 236 q 278 200 242 236 q 314 113 314 164 z "},"#":{"ha":1099,"x_min":56,"x_max":1043,"o":"m 1043 578 l 857 578 l 806 394 l 942 394 l 942 221 l 756 221 l 693 0 l 494 0 l 557 221 l 394 221 l 332 -1 l 132 -1 l 194 221 l 56 221 l 56 394 l 243 394 l 296 578 l 157 578 l 157 753 l 344 753 l 408 982 l 608 982 l 544 753 l 706 753 l 771 982 l 971 982 l 906 753 l 1043 753 l 1043 578 m 606 394 l 657 578 l 494 578 l 443 394 l 606 394 z "},".":{"ha":317,"x_min":28,"x_max":289,"o":"m 157 0 q 65 40 103 0 q 28 136 28 81 q 66 226 28 189 q 157 264 104 264 q 250 225 211 264 q 289 132 289 186 q 250 39 289 78 q 157 0 211 0 z "},"?":{"ha":785,"x_min":28,"x_max":757,"o":"m 454 254 q 477 351 454 293 q 597 460 500 410 q 711 551 675 500 q 752 631 747 601 q 757 686 757 661 q 730 808 757 750 q 650 913 703 867 q 531 980 597 957 q 393 1003 465 1003 q 253 980 319 1003 q 135 913 188 957 q 55 808 82 867 q 28 686 28 750 l 28 668 l 274 668 l 274 686 q 308 757 274 728 q 392 786 343 786 q 478 756 442 786 q 515 686 515 726 q 476 626 515 654 q 432 596 467 619 q 353 525 397 572 q 286 411 304 474 q 268 293 268 349 q 269 267 268 276 q 271 254 271 257 l 454 254 m 474 33 q 483 81 483 54 q 465 144 483 114 q 414 188 446 174 q 367 197 393 197 q 303 178 333 197 q 260 128 274 160 q 250 81 250 107 q 269 17 250 46 q 319 -26 288 -12 q 367 -36 340 -36 q 430 -17 400 -36 q 474 33 460 1 z "},"\"":{"ha":515,"x_min":63,"x_max":453,"o":"m 229 981 l 229 639 l 63 639 l 63 981 l 229 981 m 453 981 l 453 639 l 286 639 l 286 981 l 453 981 z "},"'":{"ha":308,"x_min":42,"x_max":267,"o":"m 267 981 l 267 639 l 42 639 l 42 981 l 267 981 z "},";":{"ha":436,"x_min":47,"x_max":358,"o":"m 242 438 q 164 471 196 438 q 129 551 132 504 q 161 633 128 599 q 242 667 194 667 q 324 633 290 667 q 357 551 357 600 q 323 471 357 504 q 242 438 289 438 m 150 161 l 47 -128 l 256 -128 l 358 161 l 150 161 z "},"/":{"ha":654,"x_min":28,"x_max":626,"o":"m 246 -71 l 626 992 l 407 992 l 28 -71 l 246 -71 z "},"_":{"ha":642,"x_min":28,"x_max":614,"o":"m 28 197 l 614 197 l 614 0 l 28 0 l 28 197 z "},"{":{"ha":508,"x_min":56,"x_max":453,"o":"m 426 -11 l 453 -57 l 300 -162 q 235 -40 276 -129 q 161 185 192 46 q 151 226 157 199 l 151 226 l 151 229 l 151 231 q 119 319 140 290 q 76 355 97 347 q 56 360 56 363 l 56 428 l 56 497 q 76 502 56 494 q 119 538 97 510 q 151 625 140 567 l 151 626 l 151 629 l 151 629 q 161 671 157 657 q 235 897 192 808 q 300 1019 279 990 l 453 913 q 426 867 449 908 l 425 864 l 407 828 q 329 579 356 718 q 296 474 318 514 q 277 447 286 457 q 262 432 268 436 q 254 428 256 428 q 262 424 256 428 q 277 410 268 419 q 296 383 286 400 q 329 278 318 340 q 407 28 356 139 q 425 -7 422 -1 l 426 -11 z "},"}":{"ha":508,"x_min":56,"x_max":453,"o":"m 83 -7 q 101 28 88 -1 q 179 278 153 139 q 213 383 190 340 q 231 410 222 400 q 247 424 240 419 q 254 428 253 428 q 247 432 253 428 q 231 447 240 436 q 213 474 222 457 q 179 579 190 514 q 101 828 153 718 l 83 864 l 82 867 q 56 913 60 908 l 208 1019 q 274 897 229 990 q 347 671 317 808 q 357 629 351 657 l 357 629 l 357 626 l 357 625 q 390 538 368 567 q 432 502 411 510 q 453 497 453 494 l 453 428 l 453 360 q 432 355 453 363 q 390 319 411 347 q 357 231 368 290 l 357 229 l 357 226 l 357 226 q 347 185 351 199 q 274 -40 317 46 q 208 -162 232 -129 l 56 -57 l 82 -11 l 83 -7 z "},"[":{"ha":358,"x_min":28,"x_max":331,"o":"m 28 -58 l 331 -58 l 331 108 l 203 108 l 203 822 l 331 822 l 331 985 l 28 985 l 28 -58 z "},"]":{"ha":358,"x_min":28,"x_max":331,"o":"m 331 -58 l 331 985 l 28 985 l 28 822 l 156 822 l 156 108 l 28 108 l 28 -58 l 331 -58 z "},"(":{"ha":429,"x_min":56,"x_max":374,"o":"m 367 -1 q 246 383 267 190 q 240 489 240 429 q 261 694 240 593 q 303 836 278 772 q 348 936 328 900 q 374 982 368 972 l 374 982 l 222 1088 q 157 966 201 1058 q 83 742 113 874 q 56 489 56 622 q 61 369 56 424 q 203 -87 86 135 l 367 -1 z "},")":{"ha":429,"x_min":56,"x_max":374,"o":"m 226 -87 q 368 369 343 135 q 374 489 374 424 q 346 742 374 622 q 272 966 317 874 q 207 1088 228 1058 l 56 982 l 56 982 q 75 950 56 981 q 123 846 94 919 q 168 694 151 772 q 189 489 189 593 q 183 383 189 429 q 63 -1 163 190 l 226 -87 z "},"—":{"ha":1185,"x_min":42,"x_max":1143,"o":"m 42 586 l 1143 586 l 1143 389 l 42 389 l 42 586 z "},"–":{"ha":726,"x_min":42,"x_max":685,"o":"m 42 586 l 685 586 l 685 389 l 42 389 l 42 586 z "},"-":{"ha":532,"x_min":42,"x_max":490,"o":"m 42 586 l 490 586 l 490 389 l 42 389 l 42 586 z "},"$":{"ha":744,"x_min":24,"x_max":710,"o":"m 232 279 q 250 222 232 249 q 297 179 268 194 l 297 413 q 194 443 235 428 q 121 486 153 458 q 117 489 119 486 q 48 581 72 529 q 24 692 24 633 q 59 822 24 761 q 157 925 94 883 q 297 981 219 967 l 297 1056 l 433 1056 l 433 981 q 574 926 511 968 q 674 824 638 885 q 710 692 710 763 l 503 692 q 484 751 503 724 q 433 794 465 779 l 433 560 q 534 530 493 544 q 607 490 575 515 l 613 486 l 613 485 q 684 392 658 444 q 710 279 710 339 q 674 147 710 208 q 574 44 638 86 q 433 -10 511 3 l 433 -83 l 297 -83 l 297 -10 q 157 46 219 4 q 59 149 94 88 q 24 279 24 210 l 232 279 m 228 692 q 272 615 228 642 q 297 601 276 611 l 297 792 q 247 749 267 775 q 228 692 228 722 m 433 176 q 487 220 467 193 q 507 279 507 247 q 463 354 507 329 q 433 371 450 365 l 433 176 z "},"€":{"ha":869,"x_min":28,"x_max":814,"o":"m 814 986 l 814 950 l 814 747 l 629 747 q 501 713 558 747 q 419 635 451 683 l 685 635 l 685 635 l 685 514 l 685 514 l 376 514 q 375 492 375 507 q 376 464 375 474 l 685 464 l 685 464 l 685 344 l 685 344 l 424 344 q 501 272 453 303 q 629 238 563 238 l 814 238 l 814 35 l 814 0 l 629 0 q 382 65 492 0 q 203 244 269 132 q 158 344 176 288 l 28 344 l 28 464 l 138 464 q 136 492 136 474 q 138 514 136 507 l 28 514 l 28 635 l 157 635 q 203 740 174 688 q 382 919 269 853 q 629 986 494 986 l 814 986 z "},"£":{"ha":690,"x_min":42,"x_max":663,"o":"m 663 174 l 663 0 l 42 0 l 42 139 q 139 194 107 172 q 192 250 171 215 q 213 338 213 285 q 207 425 213 382 l 50 425 l 50 556 l 186 556 q 174 697 174 650 q 210 851 174 785 q 313 954 247 918 q 461 990 378 990 q 624 953 565 990 l 596 781 q 577 790 592 783 q 541 803 563 797 q 499 810 519 810 q 439 784 467 810 q 411 689 411 758 q 419 604 411 642 q 431 556 428 567 l 558 556 l 558 425 l 444 425 q 447 367 447 386 q 438 274 447 317 q 413 215 429 240 q 375 174 396 189 l 663 174 z "},"+":{"ha":660,"x_min":56,"x_max":604,"o":"m 56 406 l 604 406 l 604 582 l 56 582 l 56 406 m 242 768 l 242 219 l 418 219 l 418 768 l 242 768 z "},"÷":{"ha":694,"x_min":42,"x_max":653,"o":"m 42 593 l 653 593 l 653 393 l 42 393 l 42 593 m 347 657 q 269 690 301 657 q 238 767 238 722 q 269 843 238 811 q 347 875 301 875 q 424 843 392 875 q 456 767 456 811 q 424 690 456 722 q 347 657 392 657 m 347 326 q 424 294 392 326 q 456 217 456 263 q 424 140 456 172 q 347 108 392 108 q 269 140 301 108 q 238 217 238 172 q 269 294 238 263 q 347 326 301 326 z "},"=":{"ha":618,"x_min":56,"x_max":563,"o":"m 56 511 l 563 511 l 563 674 l 56 674 l 56 511 m 56 294 l 563 294 l 563 457 l 56 457 l 56 294 z "},">":{"ha":569,"x_min":56,"x_max":528,"o":"m 56 774 l 528 503 l 528 501 l 528 274 l 528 271 l 56 0 l 56 229 l 329 388 l 56 544 l 56 774 z "},"<":{"ha":569,"x_min":42,"x_max":514,"o":"m 514 774 l 514 544 l 240 388 l 514 229 l 514 0 l 42 271 l 42 274 l 42 501 l 42 503 l 514 774 z "},"~":{"ha":746,"x_min":54,"x_max":692,"o":"m 196 375 q 210 432 193 410 q 256 454 228 454 q 290 449 272 454 q 336 432 308 443 l 363 421 q 437 395 404 404 q 503 386 469 386 q 638 431 585 386 q 690 558 692 476 l 551 608 q 538 556 553 574 q 497 539 524 539 q 459 544 478 539 q 420 558 440 550 q 388 571 400 567 q 315 599 343 590 q 251 607 286 607 q 156 584 201 607 q 82 519 110 561 q 56 426 54 478 l 196 375 z "},"%":{"ha":1061,"x_min":56,"x_max":1006,"o":"m 264 972 q 160 945 208 972 q 84 871 113 918 q 56 767 56 824 q 84 664 56 711 q 160 590 113 617 q 264 563 208 563 q 367 590 319 563 q 444 663 415 617 q 472 767 472 710 q 444 871 472 824 q 367 945 415 918 q 264 972 319 972 m 114 7 l 328 7 l 946 971 l 732 971 l 114 7 m 264 694 q 215 715 235 694 q 194 767 194 735 q 215 819 194 799 q 264 839 235 839 q 313 819 293 839 q 332 767 332 799 q 313 715 332 735 q 264 694 293 694 m 797 408 q 694 381 742 408 q 617 308 646 354 q 589 204 589 261 q 617 101 589 149 q 694 27 646 54 q 797 0 742 0 q 901 27 853 0 q 977 101 949 54 q 1006 204 1006 147 q 977 308 1006 261 q 901 381 949 354 q 797 408 853 408 m 797 131 q 748 151 768 131 q 728 204 728 171 q 748 255 728 235 q 797 275 768 275 q 846 255 826 275 q 865 204 865 235 q 846 151 865 172 q 797 131 826 131 z "},"→":{"ha":968,"x_min":28,"x_max":940,"o":"m 28 589 l 686 589 l 686 422 l 28 422 l 28 589 m 660 786 l 940 504 l 660 222 l 660 786 l 660 786 z "},"←":{"ha":968,"x_min":28,"x_max":940,"o":"m 940 589 l 940 422 l 282 422 l 282 589 l 940 589 m 308 786 l 308 786 l 308 222 l 28 504 l 308 786 z "},"@":{"ha":1119,"x_min":14,"x_max":1106,"o":"m 764 31 q 660 85 708 42 q 599 178 611 129 q 457 142 521 142 q 320 203 369 142 q 271 354 271 264 q 299 490 271 422 q 383 607 328 558 q 626 706 493 706 q 717 694 675 706 q 783 671 758 683 q 815 654 808 658 q 792 574 810 636 q 759 432 775 513 q 743 292 743 351 q 772 199 743 217 q 808 188 792 188 q 894 249 854 188 q 947 399 933 311 q 949 431 949 410 q 932 546 949 490 q 853 691 907 628 q 724 790 799 754 q 568 825 650 825 q 449 804 508 825 q 303 713 367 775 q 206 567 240 650 q 171 399 171 485 q 189 282 171 343 q 269 136 214 200 q 401 37 325 72 q 558 3 476 1 l 558 -143 q 519 -142 533 -143 q 221 -35 350 -132 q 42 219 92 63 q 14 394 14 307 q 72 656 14 529 q 232 865 129 782 q 393 956 306 925 q 574 988 481 988 q 767 951 674 988 q 935 843 861 914 q 1063 656 1019 761 q 1106 436 1106 550 q 1047 185 1106 301 q 1011 133 1035 158 l 1011 133 q 922 56 972 86 q 808 26 871 26 q 764 31 788 26 m 608 467 q 624 526 617 504 q 635 551 632 547 q 622 554 632 553 q 597 556 611 556 q 503 533 551 556 q 421 451 456 511 q 396 365 396 410 q 413 311 396 332 q 460 290 429 290 q 596 357 514 290 q 599 403 596 368 q 608 467 603 439 z "},"&":{"ha":910,"x_min":28,"x_max":910,"o":"m 910 0 l 661 0 l 579 85 q 506 28 535 42 l 506 28 q 338 -18 436 -18 q 182 23 253 -18 q 69 134 111 64 q 28 288 28 204 l 29 317 q 168 510 47 440 l 182 518 l 169 531 q 160 540 160 540 l 142 561 q 89 722 89 633 q 126 858 89 796 q 225 958 163 921 q 361 994 288 994 q 497 958 435 994 q 597 858 560 921 q 633 722 633 796 q 604 601 633 660 q 560 538 589 569 q 542 519 551 528 l 521 503 q 474 475 494 483 l 486 460 l 586 351 l 586 351 l 625 403 l 669 461 l 690 444 l 803 357 q 767 308 796 346 q 703 225 739 269 l 910 0 m 361 824 q 297 797 324 824 q 269 733 269 771 q 282 689 269 708 l 282 689 q 336 625 293 665 l 338 624 l 351 611 q 407 643 379 622 l 417 653 q 450 713 444 681 l 450 714 q 453 733 453 725 q 426 797 453 771 q 361 824 399 824 m 219 288 q 254 203 219 238 q 339 169 289 169 q 399 183 369 169 q 449 218 429 196 l 292 382 q 219 290 228 353 l 219 288 z "},"©":{"ha":1067,"x_min":28,"x_max":1039,"o":"m 535 974 q 787 906 671 974 q 971 721 903 838 q 1039 467 1039 604 q 971 215 1039 331 q 787 31 903 99 q 535 -37 671 -37 q 281 31 397 -37 q 96 215 164 99 q 28 467 28 331 q 96 721 28 604 q 281 906 164 838 q 535 974 397 974 m 535 104 q 715 153 632 104 q 848 286 799 203 q 897 467 897 369 q 848 649 897 565 q 715 782 799 733 q 535 831 632 831 q 353 782 436 831 q 220 649 269 733 q 171 467 171 565 q 220 286 171 369 q 353 153 269 203 q 535 104 436 104 m 544 607 q 447 566 488 607 q 406 467 406 525 q 447 369 406 410 q 544 329 488 329 q 643 369 600 329 l 735 278 q 649 219 699 240 q 544 199 599 199 q 409 235 471 199 q 311 333 347 271 q 275 467 275 394 q 311 603 275 540 q 409 701 347 665 q 544 738 471 738 q 648 717 599 738 q 735 658 697 696 l 643 565 q 544 607 599 607 z "},"®":{"ha":717,"x_min":28,"x_max":689,"o":"m 358 1013 q 524 968 447 1013 q 644 847 600 924 q 689 681 689 771 q 644 515 689 592 q 524 394 600 439 q 358 350 447 350 q 192 394 268 350 q 72 515 117 439 q 28 681 28 590 q 72 847 28 771 q 192 968 117 924 q 358 1013 268 1013 m 358 435 q 482 468 425 435 q 572 558 539 501 q 606 681 606 614 q 572 804 606 747 q 482 894 539 861 q 358 928 425 928 q 235 894 292 928 q 144 804 178 861 q 111 681 111 747 q 144 558 111 614 q 235 468 178 501 q 358 435 292 435 m 421 747 q 412 772 421 761 q 389 783 403 782 l 389 783 l 388 783 l 385 783 l 383 783 l 315 783 l 313 783 l 313 711 l 315 711 l 383 711 l 386 711 l 388 711 l 389 711 q 412 723 403 713 q 421 747 421 733 m 508 511 l 419 511 l 365 640 l 315 640 l 315 511 l 233 511 l 233 854 l 267 854 l 315 854 l 392 854 q 467 823 436 854 q 499 747 499 792 q 485 697 499 719 q 450 658 472 674 l 508 511 z "},"™":{"ha":1057,"x_min":28,"x_max":1001,"o":"m 160 969 l 292 969 l 424 969 l 424 839 l 292 839 l 292 456 l 160 456 l 160 839 l 28 839 l 28 969 l 160 969 m 871 969 l 1001 969 l 1001 456 l 871 456 l 871 458 l 871 490 l 871 746 l 807 629 l 804 624 l 672 624 l 669 629 l 661 646 l 606 746 l 606 490 l 606 458 l 606 456 l 589 456 l 474 456 l 474 969 l 606 969 l 739 751 l 871 969 z "},"|":{"ha":294,"x_min":56,"x_max":239,"o":"m 239 982 l 239 -215 l 56 -215 l 56 982 l 239 982 z "},"^":{"ha":714,"x_min":28,"x_max":686,"o":"m 28 574 l 267 990 l 268 990 l 444 990 l 447 990 l 686 574 l 496 574 l 356 815 l 218 574 l 28 574 z "},"`":{"ha":443,"x_min":56,"x_max":388,"o":"m 56 1038 l 194 800 l 388 800 l 272 1038 l 56 1038 z "}}}
